<svg xmlns="http://www.w3.org/2000/svg" viewBox="0 0 48 48"><path fill="#f8f9f9" d="M8 6v24H2V8a2 2 0 0 1 2-2zm38 2v22h-6V6h4a2 2 0 0 1 2 2zM10 2h28a2 2 0 0 1 2 2v26H8V4a2 2 0 0 1 2-2z"/><path fill="#bec6c6" d="M31 21h-3a1 1 0 0 1 0-2h3a1 1 0 0 1 0 2zm-1 5c-.54 0-.57-.15-2.71-2.29a1 1 0 0 1 1.42-1.42l2 2A1 1 0 0 1 30 26zm-2-9a1 1 0 0 1-.71-1.71l2-2a1 1 0 0 1 1.42 1.42C28.53 16.89 28.54 17 28 17zm-8 4h-3a1 1 0 0 1 0-2h3a1 1 0 0 1 0 2zm-2 5a1 1 0 0 1-.71-1.71l2-2a1 1 0 0 1 1.42 1.42C18.53 25.89 18.54 26 18 26zm2-9c-.54 0-.57-.15-2.71-2.29a1 1 0 0 1 1.42-1.42l2 2A1 1 0 0 1 20 17zM40 4v4H8V4a2 2 0 0 1 2-2h28a2 2 0 0 1 2 2zm6 26v6a2 2 0 0 1-2 2H4a2 2 0 0 1-2-2v-6zM33 46H15a10.23 10.23 0 0 0 3-7.24V38h12v.76A10.25 10.25 0 0 0 33 46z"/><path fill="#6457ff" d="M27 16h-6v-1a3 3 0 0 1 6 0Z"/><path fill="#6457ff" d="M24 27a5 5 0 0 1-5-5v-5a2 2 0 0 1 2-2h6a2 2 0 0 1 2 2v5a5 5 0 0 1-5 5zm-1-12a1 1 0 0 1-.89-.55l-1-2a1 1 0 0 1 1.78-.9l1 2A1 1 0 0 1 23 15z"/><path fill="#6457ff" d="M25 15a1 1 0 0 1-.89-1.45l1-2a1 1 0 1 1 1.78.9l-1 2A1 1 0 0 1 25 15Z"/><path fill="#f9f9f9" d="M29 18.62c-2.93 1.47-3.09 1.61-4 1.8v6.48a5 5 0 0 1-2 0v-6.48c-.91-.19-1.06-.33-4-1.8a7.43 7.43 0 0 1 .09-2.19l3.57 1.78a3 3 0 0 0 2.68 0l3.57-1.78a7.21 7.21 0 0 1 .09 2.19Z"/><path fill="#f8f9f9" d="M25 35h-2a1 1 0 0 1 0-2h2a1 1 0 0 1 0 2Z"/><path fill="#414141" d="M44 5h-3V4a3 3 0 0 0-3-3H10a3 3 0 0 0-3 3v1H4a3 3 0 0 0-3 3v28a3 3 0 0 0 3 3h13a9.14 9.14 0 0 1-2.7 6.29A1 1 0 0 0 15 47h18a1 1 0 0 0 .71-1.71A9.14 9.14 0 0 1 31 39h13a3 3 0 0 0 3-3V8a3 3 0 0 0-3-3Zm0 2a1 1 0 0 1 1 1v21h-4V7ZM9 9h30v20H9Zm30-5v3H17V3h21a1 1 0 0 1 1 1ZM9 4a1 1 0 0 1 1-1h5v4H9ZM4 7h3v22H3V8a1 1 0 0 1 1-1Zm26.89 38H17.11A11.15 11.15 0 0 0 19 39h10a11.15 11.15 0 0 0 1.89 6ZM44 37H4a1 1 0 0 1-1-1v-5h42v5a1 1 0 0 1-1 1Z"/></svg>