<svg id="wave" style="transform:rotate(180deg); transition: 0.3s" viewBox="0 0 1440 160" version="1.1" xmlns="http://www.w3.org/2000/svg">
    <defs>
        <linearGradient id="sw-gradient-0" x1="0" x2="0" y1="1" y2="0">
            <stop stop-color="rgba(99, 170, 255, 1)" offset="0%"></stop>
            <stop stop-color="rgba(99, 170, 255, 1)" offset="100%"></stop>
        </linearGradient>
    </defs>
    <path style="transform:translate(0, 0px); opacity:1" fill="#192B84" d="M0,128L48,106.7C96,85,192,43,288,26.7C384,11,480,21,576,37.3C672,53,768,75,864,77.3C960,80,1056,64,1152,56C1248,48,1344,48,1440,53.3C1536,59,1632,69,1728,85.3C1824,101,1920,123,2016,125.3C2112,128,2208,112,2304,96C2400,80,2496,64,2592,53.3C2688,43,2784,37,2880,32C2976,27,3072,21,3168,29.3C3264,37,3360,59,3456,77.3C3552,96,3648,112,3744,106.7C3840,101,3936,75,4032,74.7C4128,75,4224,101,4320,93.3C4416,85,4512,43,4608,32C4704,21,4800,43,4896,64C4992,85,5088,107,5184,112C5280,117,5376,107,5472,96C5568,85,5664,75,5760,66.7C5856,59,5952,53,6048,48C6144,43,6240,37,6336,50.7C6432,64,6528,96,6624,109.3C6720,123,6816,117,6864,114.7L6912,112L6912,160L6864,160C6816,160,6720,160,6624,160C6528,160,6432,160,6336,160C6240,160,6144,160,6048,160C5952,160,5856,160,5760,160C5664,160,5568,160,5472,160C5376,160,5280,160,5184,160C5088,160,4992,160,4896,160C4800,160,4704,160,4608,160C4512,160,4416,160,4320,160C4224,160,4128,160,4032,160C3936,160,3840,160,3744,160C3648,160,3552,160,3456,160C3360,160,3264,160,3168,160C3072,160,2976,160,2880,160C2784,160,2688,160,2592,160C2496,160,2400,160,2304,160C2208,160,2112,160,2016,160C1920,160,1824,160,1728,160C1632,160,1536,160,1440,160C1344,160,1248,160,1152,160C1056,160,960,160,864,160C768,160,672,160,576,160C480,160,384,160,288,160C192,160,96,160,48,160L0,160Z"></path>
</svg>